<?xml version="1.0" encoding="utf-8"?>
<!-- Generator: Adobe Illustrator 22.1.0, SVG Export Plug-In . SVG Version: 6.00 Build 0)  -->
<svg version="1.1" id="Capa_1" xmlns="http://www.w3.org/2000/svg" xmlns:xlink="http://www.w3.org/1999/xlink" x="0px" y="0px"
	 viewBox="0 0 223.1 31.3" style="enable-background:new 0 0 223.1 31.3;" xml:space="preserve">
<style type="text/css">
	.st0{fill:#E0D22B;}
	.st1{fill:#FFFFFF;}
</style>
<g>
	<path class="st0" d="M105,16.9c-0.1-0.9-0.4-1.6-0.9-2.1c-0.5-0.5-1.2-0.7-2.1-0.7c-3.3,0-3.7,2.8-3.7,5.5s0.5,5.5,3.7,5.5
		c1.8,0,3.1-1.5,3.3-3.3h8.1c-0.4,3-1.8,5.4-3.9,7c-2,1.6-4.7,2.5-7.7,2.5c-6.7,0-12.1-4.6-12.1-11.7S95,7.8,101.7,7.8
		c5.8,0,10.8,2.9,11.4,9H105z"/>
	<path class="st0" d="M116.8,0h8.5v10.8h0.1c1.5-1.7,3.4-3,7-3c4,0,7.7,2.5,7.7,7.6v15.3h-8.5V19c0-2.6-0.3-4.4-2.8-4.4
		c-1.5,0-3.4,0.7-3.4,4.3v11.8h-8.5V0z"/>
	<path class="st0" d="M151.9,21.5c0.2,2.5,1.7,4.3,4.3,4.3c1.4,0,2.9-0.5,3.6-1.6h8c-1.7,4.8-6.4,7.1-11.5,7.1
		c-7.1,0-12.5-4.2-12.5-11.7c0-6.5,4.7-11.8,11.8-11.8c8.9,0,12.7,4.9,12.7,13.6H151.9z M160.1,17c0-2.1-1.5-3.7-3.7-3.7
		c-2.5,0-4,1.3-4.4,3.7H160.1z"/>
	<path class="st0" d="M186.2,16.9c-0.1-0.9-0.4-1.6-0.9-2.1c-0.5-0.5-1.2-0.7-2.1-0.7c-3.3,0-3.7,2.8-3.7,5.5s0.5,5.5,3.7,5.5
		c1.8,0,3.1-1.5,3.3-3.3h8.1c-0.4,3-1.8,5.4-3.9,7c-2,1.6-4.7,2.5-7.7,2.5c-6.7,0-12.1-4.6-12.1-11.7s5.4-11.7,12.1-11.7
		c5.8,0,10.8,2.9,11.4,9H186.2z"/>
	<path class="st0" d="M198.2,0h8.5v14.8l5.4-6.4h9.6l-8,8.4l9.2,13.9h-10.2l-4.6-8.1l-1.5,1.6v6.4h-8.5V0z"/>
</g>
<g>
	<path class="st1" d="M0,8.4h11.6c6.1,0,8.2,4.5,8.2,7.7c0,5.4-3.6,8-8.8,8H6.9v6.8H0V8.4z M6.4,18.7h2.7c1.8,0,3.7-0.1,3.7-2.4
		c0-2-1.6-2.2-3.3-2.2H6.4V18.7z"/>
	<path class="st1" d="M26,8.4h6.8L41,30.8h-7.2l-0.9-3.2h-7.1l-1,3.2h-6.9L26,8.4z M31.5,22.8l-2-6.9h-0.1l-2.2,6.9H31.5z"/>
</g>
<path class="st1" d="M55.1,14.9c0-0.7-0.4-1.3-1-1.7c-0.5-0.4-1.2-0.6-1.9-0.6c-1.2,0-2.6,0.3-2.6,1.7c0,0.6,0.5,0.9,1,1.2
	c1.4,0.6,4.6,0.8,7.5,1.7c2.8,0.9,5.3,2.6,5.3,6.2c0,6.2-5.9,7.9-11.4,7.9c-5.2,0-11-2.1-11.1-7.9h8.1c0,0.8,0.4,1.4,1,2
	c0.4,0.4,1.2,0.6,2.3,0.6c1.1,0,2.9-0.4,2.9-1.7s-0.7-1.7-4.7-2.4c-6.5-1.1-9.1-3.2-9.1-7c0-5.6,6.1-7.1,10.5-7.1
	c4.8,0,10.6,1.3,10.8,7.1H55.1z"/>
<path class="st1" d="M79.1,14.9c0-0.7-0.4-1.3-1-1.7c-0.5-0.4-1.2-0.6-1.9-0.6c-1.2,0-2.6,0.3-2.6,1.7c0,0.6,0.5,0.9,1,1.2
	c1.4,0.6,4.6,0.8,7.5,1.7c2.8,0.9,5.3,2.6,5.3,6.2c0,6.2-5.9,7.9-11.4,7.9c-5.2,0-11-2.1-11.1-7.9H73c0,0.8,0.4,1.4,1,2
	c0.4,0.4,1.2,0.6,2.3,0.6c1.1,0,2.9-0.4,2.9-1.7s-0.7-1.7-4.7-2.4c-6.5-1.1-9.1-3.2-9.1-7c0-5.6,6.1-7.1,10.5-7.1
	c4.8,0,10.6,1.3,10.8,7.1H79.1z"/>
</svg>
